# xmcd
#
# Track frame offsets: 
#        150
#        22672
#        41607
#        56940
#        78825
#        93320
#        105435
#        121590
#        135885
#        151967
#
# Disc length: 2320 seconds
#
# Revision: 3
# Processed by: cddbd v1.5.2PL0 Copyright (c) Steve Scherf et al.
# Submitted via: ExactAudioCopy v0.99pb4
#
DISCID=65090e0a
DTITLE=Neil Diamond - [1971 MCA RECORDS MCAD-1683] Gold
DYEAR=1971
DGENRE=Pop
TTITLE0=Lordy
TTITLE1=Both Sides Now
TTITLE2=Solitary Man
TTITLE3=Holly Holy
TTITLE4=Cherry, Cherry
TTITLE5=Kentucky Woman
TTITLE6=Sweet Caroline
TTITLE7=Thank The Lord For The Night Time
TTITLE8=And The Singer Sings His Song
TTITLE9=Brother Love's Traveling Salvation Show
EXTD=
EXTT0=
EXTT1=
EXTT2=
EXTT3=
EXTT4=
EXTT5=
EXTT6=
EXTT7=
EXTT8=
EXTT9=
PLAYORDER=
